<svg xmlns="http://www.w3.org/2000/svg" width="5" height="175" viewBox="0 0 5 175">
  <g>
    <g opacity=".25">
      <path d="M2.5 78a2.5 2.5 0 1 1 0 5 2.5 2.5 0 0 1 0-5z"/>
    </g>
    <g opacity=".25">
      <path d="M2.5 101a2.5 2.5 0 1 1 0 5 2.5 2.5 0 0 1 0-5z"/>
    </g>
    <g opacity=".25">
      <path d="M2.5 124a2.5 2.5 0 1 1 0 5 2.5 2.5 0 0 1 0-5z"/>
    </g>
    <g opacity=".25">
      <path d="M2.5 147a2.5 2.5 0 1 1 0 5 2.5 2.5 0 0 1 0-5z"/>
    </g>
    <g opacity=".25">
      <path d="M2.5 170a2.5 2.5 0 1 1 0 5 2.5 2.5 0 0 1 0-5z"/>
    </g>
    <g opacity=".5">
      <path d="M1 0h2v60H1z"/>
    </g>
  </g>
</svg>
